<svg xmlns="http://www.w3.org/2000/svg" xmlns:xlink="http://www.w3.org/1999/xlink" style="width:0;height:0;visibility:hidden;">
  <defs/>
  <symbol id="rd-icon-spotter" viewBox="0 0 24 24" fill="black">
    <path d="M2.32 2.32C1.01 3.63 1 5.85 1 12c0 6.15.01 8.37 1.32 9.68S5.85 23 12 23s8.37-.01 9.68-1.32S23 18.15 23 12 22.99 5.63 21.68 4.32 18.15 1 12 1 5.63.99 4.32 2.32zm3.74 3.74c1.5-1.5 4.73-1.5 6.23 0l.52.52.52-.52c1.5-1.5 4.73-1.5 6.23 0s1.5 4.73 0 6.23l-.52.52.52.52c1.5 1.5 1.5 4.73 0 6.23s-4.73 1.5-6.23 0l-.52-.52-.52.52c-1.5 1.5-4.73 1.5-6.23 0s-1.5-4.73 0-6.23l.52-.52-.52-.52c-1.5-1.5-1.5-4.73 0-6.23z"/>
  </symbol>
</svg>
