<svg xmlns="http://www.w3.org/2000/svg" style="width:0;height:0;visibility:hidden;">
  <defs/>
  <symbol id="rd-icon-booking" viewBox="0 0 24 24" fill="black">
    <!-- Filled B-outline; these numbers will need to match your traced outline for pixel-perfect match -->
    <path d="M3 3v18h8q4 0 6-1.8t2-5.2q0-2.2-1.2-3.8t-3.2-2.2q2-.4 3-1.7t1-3.3q0-3.1-2-4.65T13.2 3zm3 3h5q1.7 0 2.6.7t.9 2.1q0 1.3-.95 1.95T11 11H6zm0 5h5.2q1.8 0 2.725.675T15.2 16.1q0 1.45-.962 2.175T11 19H6zm13 5a2 2 0 1 1 0 4 2 2 0 0 1 0-4z"/>
  </symbol>
</svg>
