<svg xmlns="http://www.w3.org/2000/svg"
     xmlns:xlink="http://www.w3.org/1999/xlink"
     style="width:0;height:0;visibility:hidden;">
  <defs/>
  <symbol id="rd-icon-booking" viewBox="0 0 24 24" fill="black">
    <!-- All coordinates and stroke widths divided by 8 from your original SVG -->
    <path stroke="black"
          stroke-linejoin="round"
          stroke-width="1.5"
          d="M9.498 18.127H6.355v-3.720c0-0.791 0.308-1.217 0.998-1.303h2.157
             a2.359 2.359 0 0 1 1.851 0.671 2.297 2.297 0 0 1 0.675 1.830c0 1.583-0.970 2.529-2.538 2.529zM6.349 8.089V7.114
             c0-0.852 0.370-1.266 1.171-1.315h1.615c1.380 0 2.219 0.816 2.219 2.192 0 1.035-0.570 2.252-2.157 2.252H6.361zm7.174
             3.713-0.567-0.317 0.493-0.426c0.579-0.487 1.541-1.596 1.541-3.500 0-3.479-2.307-5.476-6.343-5.476H5.653c-1.705
             0.036-2.745 1.087-2.755 2.267v16.558h6.483c3.944 0 6.484-2.118 6.484-5.405 0-1.765-0.820-3.287-2.206-4.048"/>
    <ellipse cx="18.992" cy="19.021" fill="black" stroke="black" stroke-linejoin="round" stroke-width="1"
             rx="1.475" ry="1.463"/>
  </symbol>
</svg>
