<svg xmlns="http://www.w3.org/2000/svg" xmlns:xlink="http://www.w3.org/1999/xlink" style="width:0;height:0;visibility:hidden;">
  <defs/>
  <symbol id="rd-icon-spotter" viewBox="0 0 24 24" fill="black">
    <path d="M11.04 3.36c-4.07 0-6.81.48-6.81.48c-.26.05-.44.3-.39.56.05.26.3.44.56.39 0 0 .36-.05.99-.12v4.68H2.88v.96h2.4v1.94c1.01.05 2.04.16 3.05.35-.19-.59-.48-1.42-.72-2.06-.31-.82-.95-1.08-1.39-1.2V4.56c1.15-.12 2.81-.24 4.82-.24 1.51 0 2.83.07 3.87.15l.01.05 3.26 7.49-1.71 3.84h-4.01v-.82c0-.54-.35-1.01-.91-1.22-2.25-.88-5.18-1.39-7.75-1.34-.84.03-1.42.22-1.78.58-.96 1.01-1.11 2.69-1.11 4.2 0 .26.22.48.48.48h.53c-.03.16-.05.32-.05.48 0 1.32 1.08 2.4 2.4 2.4 1.16 0 2.13-.83 2.35-1.92h11.57c.22 1.09 1.19 1.92 2.35 1.92 1.32 0 2.4-1.08 2.4-2.4 0-.11-.02-.21-.03-.31.02-.05.03-.11.03-.17v-2.88c0-.04-.01-.08-.01-.12-.41-1.66-3.29-2.93-3.98-3.23l-3.09-7.05c1.05.11 1.66.24 1.66.24.26.05.51-.12.56-.39.05-.26-.12-.51-.39-.56 0 0-2.74-.48-6.59-.48zm3.78 4.32c-.11.01-.21.06-.29.14l-1.92 1.92c-.19.19-.19.5 0 .69.19.19.5.19.69 0l.62-.62 2.90 2.90.42-.94-2.64-2.64.62-.62c.16-.14.19-.37.11-.55-.08-.19-.28-.3-.51-.28zm-10.5 9.12c.79 0 1.44.65 1.44 1.44s-.65 1.44-1.44 1.44-1.44-.65-1.44-1.44.65-1.44 1.44-1.44zm16.32 0c.79 0 1.44.65 1.44 1.44s-.65 1.44-1.44 1.44-1.44-.65-1.44-1.44.65-1.44 1.44-1.44z"/>
  </symbol>
</svg>
