<svg xmlns="http://www.w3.org/2000/svg"
     xmlns:xlink="http://www.w3.org/1999/xlink"
     style="width:0;height:0;visibility:hidden;">
  <defs/>
  <symbol id="rd-icon-spotter" viewBox="0 0 200 200" fill="#062f7b">
    <!-- white background -->
    <rect x="0" y="0" width="200" height="200" fill="#FFFFFF"/>

    <!-- bold rounded G, Genius / Booking-style -->
    <path fill="#062f7b" d="M60 60
      C60 41 75 26 96 26
      H120
      C141 26 156 41 156 62
      V138
      H112
      V122
      H132
      V96
      H106
      C91 96 82 104 82 118
      C82 132 91 140 106 140
      H132
      C132 159 117 174 96 174
      C75 174 60 159 60 140
      Z
      M108 70
      C97 70 90 77 90 88
      C90 99 97 106 108 106
      H132
      V86
      C132 76 125 70 114 70
      Z"/>
  </symbol>
</svg>
