<svg xmlns="http://www.w3.org/2000/svg" viewBox="0 0 48 48" xml:space="preserve"><path id='horse' d="M47.048 49.264s-6.253 9.383-14.662 10.361c0 0-.979 9.966-11.142 4.498-2.71-1.46-3.721-7.625-.981-11.535l2.154-3.135s5.666-17.59 10.752-22.68c0 0 1.761-8.79 0-12.897 0 0 3.127 1.761 4.102 3.517 0 0-.387-5.284-1.369-6.26 0 0 9.582 5.875 10.17 9.2 0 0 19.354-5.677 35.189 9.582 0 0-6.059-1.563-8.207-.78 0 0 19.349 10.95 22.872 23.847 0 0-6.256-4.111-8.213-3.523 0 0 13.878 12.123 11.337 33.233 0 0 1.569 4.307 17.792 5.087 0 0 25.221.198 34.997 14.475 0 0 16.226-1.173 28.744 14.074 0 0 11.143 19.357 24.441 16.805 0 0-13.099 6.064-19.357.597 0 0 2.352 10.361 36.362 17.401 0 0-49.703 19.795-53.965-15.445-.662-5.58 1.566-23.265-10.361-19.943 0 0 5.479 18.383-20.528 35.784 0 0-6.059 7.034.585 22.089 0 0 3.334 10.557-9.771 11.922 0 0-12.129 5.083-17.209 15.835 0 0-4.297 2.146-7.625 2.146 0 0-2.344 8.6-6.842 7.234 0 0-12.51-1.17-7.82-6.265l1.761-2.731s-6.059 1.561 0-6.448c0 0 2.932-3.718 14.08-3.522 0 0 2.148-4.688 13.098-9.191 0 0 7.436-3.712-1.95-19.352 0 0-4.501-13.488-7.433-15.641 0 0 .588-7.82-2.346-11.147 0 0-19.943 11.526-51.817-16.811l-6.059 5.681s-14.467-.391-17.789-7.234c0 0-8.6 5.083-5.278 18.376 0 0 .78 4.498-.195 6.649 0 0 6.646-.78 5.866 8.021 0 0 .975 10.745-3.91 8.009 0 0-4.303-2.347-4.69-8.795 0 0-1.957-5.669-5.086-7.82 0 0-3.121-3.913.783-10.167 0 0 1.566-5.083 1.767-9.965 0 0 1.173-5.675 2.542-6.845 0 0-13.687-2.353-14.079 24.624l2.349.786s6.839 12.117-2.154 16.615c0 0-3.13 1.377-4.492-3.522l-.981-10.557s-4.69-8.802-1.174-16.231c0 0 5.078-6.053 6.647-16.225 0 0 .393-8.012 13.884-5.875 0 0 10.749 3.523 19.157.198 0 0-.612-15.899 5.677-24.054 4.884-6.338 11.72-26.19.377-32.05"/>
<use xlink:href="#horse"></use>
</svg>