<svg version="1.0" xmlns="http://www.w3.org/2000/svg"
 width="258.000000pt" height="255.000000pt" viewBox="0 0 258.000000 255.000000"
 preserveAspectRatio="xMidYMid meet">
<symbol id="rd-icon-spotter" viewBox="0 0 222.03 222.03" fill="black" >
<g transform="translate(0.000000,255.000000) scale(0.100000,-0.100000)"
fill="#000000" stroke="none">
<path d="M1105 2445 c-142 -22 -261 -61 -375 -123 -335 -180 -551 -475 -626
-851 -23 -119 -16 -385 14 -493 34 -119 51 -167 93 -252 172 -345 504 -590
885 -651 508 -82 1021 185 1253 651 42 85 59 133 93 252 30 108 37 374 14 493
-75 378 -289 669 -626 851 -214 115 -484 161 -725 123z m395 -81 c340 -71 633
-298 788 -609 117 -236 144 -523 75 -795 -9 -36 -20 -69 -25 -74 -4 -6 -8 -16
-8 -24 0 -27 -93 -199 -147 -271 -167 -223 -385 -365 -662 -433 -123 -30 -359
-30 -482 0 -277 68 -495 210 -662 433 -54 72 -147 244 -147 271 0 8 -4 18 -8
24 -11 12 -39 122 -52 204 -14 92 -12 260 4 360 55 341 279 644 601 814 111
59 275 107 410 120 70 7 237 -4 315 -20z"/>
<path d="M1214 2319 c-81 -11 -206 -56 -241 -88 -10 -9 -37 -29 -60 -45 -24
-16 -43 -33 -43 -38 0 -5 -14 -24 -32 -41 -37 -38 -90 -147 -112 -233 -20 -76
-23 -313 -4 -332 9 -9 142 -12 535 -12 l523 0 1 -87 c0 -49 4 -97 8 -108 6
-13 2 -37 -10 -68 -11 -26 -19 -55 -19 -63 0 -22 -63 -154 -87 -183 -20 -24
-21 -24 -56 -8 -19 10 -37 21 -39 25 -7 19 -108 65 -168 78 -82 18 -158 18
-240 0 -85 -18 -104 -26 -173 -75 -32 -23 -63 -41 -69 -41 -15 0 -58 48 -58
65 0 8 -11 35 -25 60 -13 26 -34 79 -46 119 -46 155 -56 181 -74 184 -29 6
-35 -17 -35 -130 0 -59 -5 -176 -11 -260 -16 -213 -3 -301 61 -423 53 -103 99
-179 111 -183 5 -2 16 -19 25 -39 10 -19 24 -37 33 -41 9 -3 32 -20 52 -37 61
-54 92 -60 319 -60 218 0 265 5 298 33 12 9 36 28 54 41 35 26 113 123 135
168 7 16 27 50 44 77 42 67 81 177 93 264 3 23 2 104 -4 180 -6 75 -13 169
-16 207 -10 147 -15 190 -23 198 -13 13 -30 0 -45 -36 -12 -27 -14 -29 -15
-10 -1 12 4 45 10 72 8 39 17 54 37 63 26 13 27 15 28 113 2 100 2 100 30 112
18 7 79 12 153 13 l124 0 -6 -42 c-8 -59 -33 -88 -113 -129 -79 -41 -73 -19
-59 -220 9 -125 1 -152 -42 -140 -35 9 -65 3 -60 -12 5 -15 61 -29 101 -25
l31 3 0 150 c0 98 -5 157 -12 171 -12 20 -10 22 27 27 25 3 56 19 87 43 64 52
67 57 82 125 20 90 18 91 -160 87 -123 -2 -150 -6 -166 -20 -11 -10 -22 -18
-25 -18 -3 0 -8 40 -12 89 -7 91 -26 146 -72 207 -13 17 -24 35 -24 41 0 11
-98 113 -109 113 -3 0 -23 13 -42 29 -83 68 -259 109 -395 90z m80 -25 c7 -19
8 -707 1 -726 -4 -10 -58 -12 -277 -10 -150 2 -274 5 -277 7 -2 2 -7 34 -10
70 -7 65 -7 65 18 65 15 1 101 0 193 0 191 -1 211 4 206 53 l-3 32 -208 3
c-192 2 -208 4 -203 20 3 9 12 44 22 77 9 33 20 65 24 70 3 6 13 26 20 45 38
100 202 240 315 269 46 13 152 38 166 40 4 1 10 -6 13 -15z m138 -18 c76 -20
96 -29 158 -71 112 -76 215 -219 229 -317 4 -29 13 -63 19 -75 l13 -23 -204 0
c-144 0 -206 -3 -215 -12 -19 -19 -14 -46 12 -63 21 -14 55 -16 225 -13 l201
3 0 -87 0 -88 -41 0 c-23 0 -47 7 -55 15 -13 12 -51 15 -217 15 -111 0 -212 3
-224 6 l-23 6 0 359 0 359 35 0 c18 0 58 -6 87 -14z m-307 -510 c11 -8 16 -19
12 -30 -6 -14 -30 -16 -202 -16 l-195 0 0 24 c0 13 6 27 13 29 6 3 89 6 183 6
128 1 175 -2 189 -13z m721 -21 l29 -25 -196 0 c-148 0 -200 3 -214 13 -40 30
-7 37 174 37 175 0 178 0 207 -25z m11 -678 c3 -261 3 -262 -23 -342 -32 -98
-131 -268 -193 -330 -25 -26 -66 -59 -91 -74 -45 -26 -45 -26 -260 -26 -147 1
-224 5 -244 13 -86 37 -176 144 -269 322 -64 122 -72 187 -56 441 7 110 16
196 20 192 4 -4 21 -43 38 -86 50 -125 79 -176 114 -197 38 -24 46 -22 140 36
58 36 91 48 158 60 114 20 230 6 309 -38 30 -17 76 -43 102 -57 l47 -26 28 21
c38 28 98 137 122 221 27 95 45 143 50 137 2 -2 6 -122 8 -267z"/>
<path d="M1137 1005 c-60 -21 -102 -61 -112 -107 -13 -56 53 -138 110 -138 11
0 44 11 73 25 30 14 64 25 77 25 13 0 47 -11 77 -25 84 -39 130 -29 163 35 33
65 10 132 -59 171 -36 20 -57 23 -166 25 -83 2 -138 -2 -163 -11z m315 -49
c49 -24 66 -71 43 -115 -23 -45 -57 -49 -119 -17 -65 34 -120 34 -177 1 -56
-32 -84 -31 -114 1 -43 47 -27 99 40 130 60 28 270 28 327 0z"/>
</g>
</symbol>
</svg>
