<svg xmlns="http://www.w3.org/2000/svg" xmlns:xlink="http://www.w3.org/1999/xlink" style="width:0;height:0;visibility:hidden;">
  <defs/>
  <symbol id="rd-icon-justeat" viewBox="0 0 48 48" fill="black">
    <path d="M22.23,0.48c0.4-0.26,0.88-0.26,1.28,0c4.57,3.13,9.13,6.63,9.21,6.63c0.12,0,0.13-0.16,0.14-0.25
      c0.04-0.61,0.05-1.14,0.07-1.32c0.04-0.47,0.42-0.8,0.88-0.8c2.27,0.11,3.66,0.3,3.66,0.3c0.62,0.08,1.11,0.58,1.18,1.21
      c0,0,0.9,6.08,1.1,8.26c0,0,0.17,1.11,1.77,3c0,0,3.23,4.65,3.6,5.55c0,0,0.76,1.61-0.87,1.83c0,0-3,0.31-3.3,0.38
      c-0.29,0.07-0.51,0.36-0.44,0.66c0,0-0.17,8.74-1.03,13c0,0-0.22,1.84-1.45,1.8c0,0-3.41-0.1-4.21-0.08c0,0-0.34,0-0.29-0.38
      c0,0,1.73-15,0.56-22.59c0,0-0.03-0.98-0.48-1.2c0,0-0.42-0.15-0.81,0.31c-2.99,3.87-5.83,10.44-5.83,10.44s-0.1,1.84,0.38,2.3
      c0,0,0.19,0.51,1.19,0.62l1.26,0.17c0,0,0.22,0,0.21,0.29c0,0-0.29,3.62-0.37,4.27c-0.04,0.36-0.09,0.99-0.44,1.08
      c0,0-5.89-0.04-6.57,0c0,0-0.28,0-0.33-0.14c-0.06-0.14-0.4-5.27-0.39-5.98c0.01-0.71,0.2-0.71,2.13-1.82
      c1.49-0.88,1.74-2.92,1.85-4.37c0,0,0.25-7.31,0.31-8.5c0,0,0.05-0.4-0.58-0.47c0,0-0.46,9.48-0.38,13.21c0,0,0.14,1.22-0.85,1.24
      c0,0-0.9,0.13-0.94-0.89c0,0,0.07-4.63,0.40-6.91c0,0-0.28-0.49-0.47-0.48c-0.18,0.01-0.65,0.57-0.63,0.65c0,0-0.39,4.66-0.30,7.11
      c0,0,0.11,1.19-0.83,1.15c0,0-0.78,0.09-0.82-0.97c0,0,0.21-6.38,0.25-6.82c-0.04-0.48-0.47-0.68-0.60-0.67
      c-0.13,0.01-0.58,0.31-0.62,0.75c-0.01,0.12-0.41,8.68-0.32,12.26c0,0-0.07,1.97,1.50,2.77c0,0,0.23,0.13,0.23,0.32
      c0,0,0.17,2.98,0.41,3.94c0,0,0.05,0.23-0.19,0.23l-4.12,4.75c-1.25,1.23-3.51-1.16-3.74-1.57C5.48,26.22,4.54,19.6,4.48,18.79
      c-0.10-1.32-0.76-1.43-0.97-1.48c-0.80-0.20-0.18-1.31,1.09-4.51C9.44,7.95,16.62,5.27,22.23,0.48Z"/>
  </symbol>
</svg>
