<svg xmlns="http://www.w3.org/2000/svg" style="width:0;height:0;visibility:hidden;">
  <symbol id="rd-icon-justeat" viewBox="0 0 48 48" fill="black">
    <path d="M22.39,0.465c0.395-0.265,0.872-0.265,1.267,0c4.564,3.13,9.119,6.624,9.203,6.624c0.125,0,0.128-0.157,0.138-0.25
      c0.037-0.61,0.05-1.142,0.067-1.321c0.043-0.471,0.422-0.797,0.879-0.797c2.261,0.112,3.66,0.3,3.66,0.3c0.623,0.082,1.109,0.58,1.177,1.206
      c0,0,0.897,6.082,1.099,8.263c0,0,0.173,1.114,1.766,3.002c0,0,3.228,4.655,3.601,5.545c0,0,0.75,1.611-0.865,1.827
      c0,0-3.006,0.308-3.298,0.376c-0.288,0.068-0.507,0.356-0.442,0.661c0,0-0.17,8.744-1.03,12.994c0,0-0.224,1.841-1.453,1.796
      c0,0-3.413-0.098-4.208-0.077c0,0-0.34,0-0.29-0.376c0,0,1.731-15.006,0.558-22.591c0,0-0.033-0.98-0.481-1.197
      c0,0-0.415-0.155-0.812,0.309c-2.993,3.875-5.829,10.438-5.829,10.438s-0.101,1.841,0.376,2.304c0,0,0.193,0.507,1.186,0.623
      l1.257,0.171c0,0,0.23,0,0.21,0.295c0,0-0.288,3.622-0.372,4.266c-0.042,0.358-0.093,0.986-0.438,1.085
      c0,0-5.888-0.042-6.563,0c0,0-0.277,0-0.336-0.136c-0.06-0.137-0.404-5.268-0.393-5.982c0.01-0.714,0.2-0.708,2.133-1.822
      c1.494-0.88,1.744-2.919,1.847-4.374c0,0,0.248-7.314,0.31-8.496c0,0,0.05-0.397-0.575-0.47c0,0-0.464,9.478-0.378,13.211
      c0,0,0.143,1.216-0.848,1.24c0,0-0.899,0.126-0.944-0.892c0,0,0.066-4.626,0.404-6.914c0,0-0.285-0.487-0.466-0.477
      c-0.182,0.011-0.646,0.574-0.626,0.646c0,0-0.389,4.655-0.304,7.112c0,0,0.107,1.193-0.828,1.149c0,0-0.779,0.089-0.822-0.967
      c0,0,0.212-6.381,0.254-6.819c-0.037-0.48-0.469-0.68-0.604-0.668c-0.134,0.013-0.578,0.312-0.621,0.748
      c-0.012,0.115-0.407,8.676-0.321,12.256c0,0-0.073,1.972,1.497,2.773c0,0,0.226,0.126,0.231,0.316c0,0,0.17,2.979,0.409,3.939
      c0,0,0.055,0.232-0.194,0.232l-4.116,4.746c-1.251,1.225-3.514-1.164-3.744-1.569C5.479,26.222,4.538,19.597,4.481,18.789
      c-0.099-1.324-0.763-1.432-0.97-1.48c-0.803-0.204-0.178-1.306,1.09-4.511C9.435,7.946,16.622,5.272,22.39,0.465z"/>
  </symbol>
</svg>
