<svg xmlns="http://www.w3.org/2000/svg" xmlns:xlink="http://www.w3.org/1999/xlink" x="0px" y="0px"
     viewBox="0 0 453.176 453.176">
  <symbol id="rd-icon-spotter" viewBox="0 0 453.176 453.176" fill="black">
    <g>
      <path d="M211.197,4.383c7.421-4.982,16.372-4.982,23.793,0c52.207,35.792,104.166,75.67,105.041,75.67
        c1.428,0,1.465-1.792,1.574-2.852c0.421-6.947,0.577-13.012,0.77-15.033c0.494-5.359,4.868-9.072,10.153-9.072
        c26.067,1.294,42.163,3.469,42.163,3.469c7.168,0.945,12.757,6.692,13.535,13.915c0,0,10.331,70.281,12.658,95.518
        c0,0,1.984,12.885,20.167,34.728c0,0,36.859,53.145,41.124,63.36c0,0,8.568,18.414-9.866,20.882c0,0-34.228,3.505-37.535,4.28
        c-3.282,0.771-5.774,4.03-5.034,7.488c0,0-1.932,114.590-11.381,169.633c0,0-2.479,21.827-16.056,21.358
        c0,0-37.673-1.077-46.413-0.857c0,0-3.758,0-3.208-4.548c0,0,19.217-178.876,6.195-269.388c0,0-0.366-11.707-10.638-14.341
        c0,0-9.166-3.422-17.951,7.469c-32.115,41.567-62.557,111.473-62.557,111.473s-1.079,19.651,4.009,24.576c0,0,2.061,5.385,12.647,6.61
        l13.39,1.818c0,0,2.469,0,2.249,3.252c0,0-3.076,40.117-3.984,47.239c-0.453,3.963-1.013,10.952-4.75,12.11c0,0-63.775-0.45-70.988,0
        c0,0-2.999,0-3.632-1.472c-0.653-1.474-4.382-51.962-4.264-59.019c0.112-7.047,2.165-6.992,23.129-18.009
        c16.206-9.549,18.951-31.672,20.065-47.468c0,0,2.7-79.383,3.38-92.13c0,0,0.547-4.312-6.255-5.093
        c0,0-5.044,102.976-4.1,143.419c0,0,1.537,13.194-9.1,13.478c0,0-9.649,1.353-10.127-9.687c0,0,0.712-50.252,4.334-75.091
        c0,0-3.048-5.295-4.983-5.18c-1.935,0.116-6.855,6.236-6.642,7.01c0,0-4.1,50.148-3.206,76.625c0,0,1.128,12.85-9.246,12.376
        c0,0-8.704,0.996-9.186-10.426c0,0,2.368-68.685,2.891-73.919c-0.414-5.194-5.47-7.354-7.038-7.235
        c-1.568,0.12-6.728,3.858-7.226,9.253c-0.137,1.421-4.739,106.983-3.734,151.073c0,0-0.846,24.319,18.467,34.185
        c0,0,2.789,1.543,2.854,3.892c0,0,2.105,42.841,5.061,56.66c0,0,0.678,3.32-2.397,3.32c0,0-42.293,37.447-66.094,61.321
        c-12.822,12.566-36.012-11.937-38.375-16.095C14.093,270.676,6.895,191.446,6.226,181.702c-1.135-15.181-8.725-16.407-10.963-16.99
        c-9.07-2.308-2.003-14.942,12.318-51.616C42.57,57.469,127.57,33.633,211.197,4.383z"/>
    </g>
  </symbol>
</svg>
